<?xml version="1.0" encoding="utf-8"?>
<svg viewBox="0 0 36 36" xmlns="http://www.w3.org/2000/svg">
  <path d="M30,17h-2c0,1.8-0.5,3.5-1.4,5l1.5,1.5C29.3,21.5,29.9,19.3,30,17z" class="clr-i-solid clr-i-solid-path-1" style="fill: rgb(255, 255, 255);" transform="matrix(1, 0, 0, 1, 4.440892098500626e-16, 0)"/>
  <path d="M25,17V9c0-3.9-3.2-7-7.1-6.9c-2.9,0-5.6,1.9-6.5,4.7l13,13C24.8,18.9,25,17.9,25,17z" class="clr-i-solid clr-i-solid-path-2" style="fill: rgb(255, 255, 255);" transform="matrix(1, 0, 0, 1, 4.440892098500626e-16, 0)"/>
  <path d="M 25.2 26.6 L 32.1 33.5 L 33.5 32.1 L 4 2.6 L 2.6 4 L 11 12.4 L 11 17 C 11 20.9 14.1 24 18 24 C 19.3 24 20.5 23.7 21.6 23 L 23.8 25.2 C 22.1 26.4 20.1 27 18 27 C 12.6 27.2 8.2 22.9 8 17.6 C 8 17.4 8 17.2 8 17 L 6 17 C 6.1 23.2 10.8 28.4 17 29 L 17 32 L 14 32 C 13.4 32 22.6 32 22 32 L 19 32 L 19 29 C 21.2 28.8 23.4 28 25.2 26.6 Z" class="clr-i-solid clr-i-solid-path-3" style="fill: rgb(255, 255, 255);" transform="matrix(1, 0, 0, 1, 4.440892098500626e-16, 0)"/>
  <rect width="36" height="36" fill-opacity="0" y="0" x="0" style="fill: rgb(255, 255, 255);" transform="matrix(1, 0, 0, 1, 4.440892098500626e-16, 0)"/>
</svg>