<?xml version="1.0" encoding="utf-8"?>
<svg viewBox="34.73 31.27 50.34 57.25" xmlns="http://www.w3.org/2000/svg">
  <defs>
    <style>.cls-1{fill:#fff;}.cls-2{fill:#95bf47;}.cls-3{fill:#5e8e3e;}</style>
  </defs>
  <path class="cls-2" d="M78.82,42.42a.56.56,0,0,0-.5-.46l-4.61-.34-3.39-3.37a1.35,1.35,0,0,0-1.24-.16l-1.71.53c-1-2.94-2.83-5.64-6-5.64h-.26a3.86,3.86,0,0,0-3-1.71c-7.38,0-10.91,9.23-12,13.92l-5.17,1.6c-1.6.5-1.65.55-1.86,2.06C38.92,50,34.73,82.4,34.73,82.4l32.65,6.12,17.69-3.83S78.86,42.71,78.82,42.42ZM65.56,39.17,62.8,40v-.6A13.5,13.5,0,0,0,62.14,35C63.77,35.18,64.86,37,65.56,39.17Zm-5.44-3.84a13.88,13.88,0,0,1,.74,5v.32l-5.7,1.76C56.26,38.16,58.31,36.11,60.12,35.33Zm-2.2-2.07a1.69,1.69,0,0,1,.95.32c-2.37,1.11-4.9,3.92-6,9.52l-4.51,1.39C49.64,40.22,52.62,33.26,57.92,33.26Z" transform="matrix(1, 0, 0, 1, -1.7763568394002505e-15, -1.7763568394002505e-15)"/>
  <path class="cls-3" d="M78.32,42l-4.61-.34-3.39-3.37a.8.8,0,0,0-.47-.22L67.38,88.52l17.69-3.83s-6.21-42-6.25-42.27A.56.56,0,0,0,78.32,42Z" transform="matrix(1, 0, 0, 1, -1.7763568394002505e-15, -1.7763568394002505e-15)"/>
  <path class="cls-1" d="M61.37,51.73l-2.18,6.49a10,10,0,0,0-4.25-1c-3.43,0-3.61,2.16-3.61,2.7,0,3,7.73,4.1,7.73,11,0,5.46-3.47,9-8.14,9a11.32,11.32,0,0,1-8.47-3.49l1.5-5S46.9,74,49.39,74a2.19,2.19,0,0,0,2.28-2.21c0-3.87-6.34-4-6.34-10.39,0-5.35,3.84-10.52,11.59-10.52A9.53,9.53,0,0,1,61.37,51.73Z" transform="matrix(1, 0, 0, 1, -1.7763568394002505e-15, -1.7763568394002505e-15)"/>
</svg>